# xmcd
#
# Track frame offsets: 
#        150
#        2455
#        8709
#        11824
#        15351
#        18292
#        20782
#        24104
#        26412
#        28692
#        30864
#        33203
#        35459
#        39100
#        41034
#        43037
#        44867
#        47627
#        52085
#        53537
#        55401
#        57314
#        58739
#        60314
#        62466
#        65121
#        66694
#        68010
#        73659
#        75158
#        77037
#        78838
#        81657
#        84096
#        87065
#        88481
#        90237
#        91937
#        94749
#        96321
#        98142
#        100427
#        103240
#        109496
#        110882
#        112827
#        115436
#        117766
#        120116
#        122794
#        124162
#        127140
#        128566
#        131636
#        132726
#        135265
#        136652
#        143333
#        145045
#        146316
#
# Disc length: 2006 seconds
#
# Revision: 0
# Processed by: cddbd v1.5.2PL0 Copyright (c) Steve Scherf et al.
# Submitted via: ExactAudioCopy v0.95a5
#
DISCID=2507d43c
DTITLE=Scruggs, Earl - Earl Scruggs and the 5-String Banjo
DYEAR=2005
DGENRE=Bluegrass
TTITLE0=Introduction
TTITLE1=Tuning the banjo
TTITLE2=Basic rhythm
TTITLE3=Basic forward roll
TTITLE4=Alternating thumb pattern
TTITLE5=Mixing basic rhythm and alternating thumb
TTITLE6=Basic sliding on the 3rd string
TTITLE7=Basic sliding on the 4th string
TTITLE8=Sliding with basic rhythm
TTITLE9=Sliding with alternating thumb pattern
TTITLE10=Sliding with basic rhythm and alternating thumb pattern
TTITLE11=Chorus of 'Cripple Creek'
TTITLE12=Hammering-on
TTITLE13=Hammering into basic rhythm
TTITLE14=Alternating thumb roll and hammering
TTITLE15=Hammers and slides with alternating thumb roll and basic rhyt
TTITLE15=hm
TTITLE16=Forward roll modification and adding a C chord
TTITLE17=Sliding and hammering in 'Cripple Creek'
TTITLE18=Pulling-off
TTITLE19=Hammer pull-offs
TTITLE20=Pulling-off in basic rhythm
TTITLE21=Push-offs
TTITLE22=Push-offs and alternating thumb pattern
TTITLE23=Slides, pull-off, push-off, and alternating thumb pattern
TTITLE24=Advanced version of 'Cripple Creek'
TTITLE25=Variation of the forward roll
TTITLE26=Forward roll with a slide in 'Cripple Creek'
TTITLE27=Four forward roll variations
TTITLE28=Reverse roll
TTITLE29=Forward and reverse rolls in 'Ballad of Jed Clampett'
TTITLE30=Basic rhythm, alternating thumb and reverse roll in 'Ballad o
TTITLE30=f Jed Clampett'
TTITLE31=Backward roll
TTITLE32=Backward roll in first line of 'Home Sweet Home' (C tuning)
TTITLE33=Reverse roll variation (G tuning)
TTITLE34=Adding a slide to another reverse roll
TTITLE35=Forward roll emphasizing 2nd string with thumb
TTITLE36=Forward roll with hammer on 2nd string
TTITLE37=Double hammer on 2nd string and 'Foggy Mountain Breakdown' ro
TTITLE37=ll
TTITLE38=Hammer and a pull-off in a reverse roll
TTITLE39=Fretting 1st string with previous exercise
TTITLE40=Basic waltz rhythm and rolling waltz rhythm
TTITLE41=Mixing basic and rolling waltz rhythms - adding slides
TTITLE42=Setting tuners to open G and D tunings - 'Flint Hill Special' 
TTITLE42=opening
TTITLE43=Tuning break in 'Flint Hill Special'
TTITLE44=2nd-string tuner exercise
TTITLE45=Harmonic chimes
TTITLE46=Vamping full chord positions
TTITLE47=Vamped rhythm pattern
TTITLE48=Advanced vamping and rhythm
TTITLE49=More syncopated vamped rhythm pattern
TTITLE50=Vamped rhythm and muting
TTITLE51=Vamping and hammering
TTITLE52=Vamping with 4th-string lead-ins
TTITLE53=Vamping an ending
TTITLE54=C6 chord forward roll
TTITLE55=Catchy backup lick
TTITLE56=Boogie-woogie patterns
TTITLE57=Backup lick on 1st and 2nd strings while muting other strings
TTITLE57=with right thumb
TTITLE58=Mid-tempo fill-in licks using hammer-ons
TTITLE59=Chokes, whole-step and half-step
EXTD=
EXTT0=
EXTT1=
EXTT2=
EXTT3=
EXTT4=
EXTT5=
EXTT6=
EXTT7=
EXTT8=
EXTT9=
EXTT10=
EXTT11=
EXTT12=
EXTT13=
EXTT14=
EXTT15=
EXTT16=
EXTT17=
EXTT18=
EXTT19=
EXTT20=
EXTT21=
EXTT22=
EXTT23=
EXTT24=
EXTT25=
EXTT26=
EXTT27=
EXTT28=
EXTT29=
EXTT30=
EXTT31=
EXTT32=
EXTT33=
EXTT34=
EXTT35=
EXTT36=
EXTT37=
EXTT38=
EXTT39=
EXTT40=
EXTT41=
EXTT42=
EXTT43=
EXTT44=
EXTT45=
EXTT46=
EXTT47=
EXTT48=
EXTT49=
EXTT50=
EXTT51=
EXTT52=
EXTT53=
EXTT54=
EXTT55=
EXTT56=
EXTT57=
EXTT58=
EXTT59=
PLAYORDER=
